<?xml version="1.0" encoding="UTF-8"?>
<svg width="500" height="500" viewBox="0 0 500 500" xmlns="http://www.w3.org/2000/svg">
    <!-- Head outline gradient -->
    <path d="M250 50 C 150 50, 100 150, 100 250 C 100 350, 150 450, 250 450 C 350 450, 400 350, 400 250 C 400 150, 350 50, 250 50" 
          fill="none" 
          stroke="url(#headGradient)" 
          stroke-width="20"/>
    
    <!-- Neural network nodes and connections -->
    <g fill="#0EA5E9">
        <circle cx="200" cy="200" r="15"/>
        <circle cx="300" cy="200" r="15"/>
        <circle cx="250" cy="250" r="15"/>
        <circle cx="200" cy="300" r="15"/>
        <circle cx="300" cy="300" r="15"/>
    </g>
    
    <!-- Neural network connections -->
    <g stroke="#4F46E5" stroke-width="8">
        <line x1="200" y1="200" x2="300" y2="200"/>
        <line x1="200" y1="200" x2="250" y2="250"/>
        <line x1="300" y1="200" x2="250" y2="250"/>
        <line x1="200" y1="300" x2="250" y2="250"/>
        <line x1="300" y1="300" x2="250" y2="250"/>
    </g>

    <!-- Text "MogAI" -->
    <text x="100" y="480" font-family="Arial" font-size="80" font-weight="bold">
        <tspan fill="#0EA5E9">Mog</tspan><tspan fill="#4F46E5">AI</tspan>
    </text>

    <!-- Gradients -->
    <defs>
        <linearGradient id="headGradient" x1="0%" y1="0%" x2="100%" y2="100%">
            <stop offset="0%" style="stop-color:#0EA5E9"/>
            <stop offset="100%" style="stop-color:#4F46E5"/>
        </linearGradient>
    </defs>
</svg> 